<?xml version="1.0" encoding="UTF-8" standalone="no"?>
<!DOCTYPE svg PUBLIC "-//W3C//DTD SVG 20010904//EN"
              "http://www.w3.org/TR/2001/REC-SVG-20010904/DTD/svg10.dtd">

<!-- Composition icon, by pixeldroid
     License - http://creativecommons.org/licenses/by/4.0/ (CC BY 4.0) -->
<svg xmlns="http://www.w3.org/2000/svg"
     viewBox="0 0 680 980">
  <path d="M 112.00,300.00
           C 112.00,300.00 112.00,594.00 112.00,594.00
             112.00,594.00 112.00,741.00 112.00,741.00
             112.00,741.00 112.91,751.00 112.91,751.00
             115.43,785.49 129.51,818.47 150.13,846.00
             160.79,860.24 170.84,870.92 186.00,880.56
             210.23,895.99 237.61,903.10 266.00,905.09
             266.00,905.09 278.00,906.00 278.00,906.00
             278.00,906.00 315.00,906.00 315.00,906.00
             315.00,906.00 441.00,906.00 441.00,906.00
             443.34,906.00 446.74,905.80 448.78,907.02
             451.58,908.71 455.47,918.60 457.31,922.00
             461.63,929.98 467.92,939.37 474.09,946.00
             494.13,967.54 523.64,979.65 553.00,980.00
             572.64,980.23 592.01,978.42 610.00,969.74
             631.83,959.20 651.03,943.00 663.55,922.00
             697.14,865.65 678.70,790.19 622.00,756.45
             599.93,743.32 579.27,739.71 554.00,740.00
             525.27,740.34 495.15,751.06 475.04,772.00
             467.66,779.68 462.25,787.81 457.00,797.00
             449.46,810.20 452.61,811.98 441.00,812.00
             441.00,812.00 306.00,812.00 306.00,812.00
             281.66,812.00 254.33,813.47 234.00,797.48
             216.25,783.52 208.26,761.14 208.00,739.00
             208.00,739.00 208.00,540.00 208.00,540.00
             228.11,549.48 257.75,555.97 280.00,556.00
             280.00,556.00 318.00,556.00 318.00,556.00
             318.00,556.00 441.00,556.00 441.00,556.00
             443.34,556.00 446.74,555.80 448.78,557.02
             451.58,558.71 455.47,568.60 457.31,572.00
             461.63,579.98 467.92,589.37 474.09,596.00
             494.13,617.54 523.64,629.65 553.00,630.00
             572.64,630.23 592.01,628.42 610.00,619.74
             631.83,609.20 651.03,593.00 663.55,572.00
             697.14,515.65 678.70,440.19 622.00,406.45
             599.93,393.32 579.27,389.71 554.00,390.00
             525.27,390.34 495.15,401.06 475.04,422.00
             467.66,429.68 462.25,437.81 457.00,447.00
             449.46,460.20 452.61,461.98 441.00,462.00
             441.00,462.00 283.00,462.00 283.00,462.00
             274.16,461.99 264.54,460.39 256.00,458.12
             249.87,456.48 243.32,453.75 238.00,450.30
             201.95,426.97 208.00,381.02 208.00,344.00
             208.00,344.00 208.00,311.00 208.00,311.00
             208.00,308.72 207.79,305.24 209.02,303.27
             210.81,300.42 221.40,297.34 225.00,295.69
             238.59,289.47 251.70,281.54 263.00,271.71
             293.79,244.93 315.51,202.24 316.00,161.00
             316.39,127.51 309.15,98.28 290.66,70.00
             275.32,46.55 254.97,29.21 230.00,16.75
             164.63,-15.85 82.76,3.42 38.89,62.00
             16.72,91.61 7.58,124.39 8.00,161.00
             8.00,161.00 8.93,171.00 8.93,171.00
             12.99,214.87 37.51,256.86 74.00,281.66
             83.29,287.97 101.04,298.28 112.00,300.00 Z
           M 552.00,440.29
           C 561.21,439.42 572.17,440.23 581.00,443.03
             620.63,455.57 639.43,496.56 625.30,535.00
             622.43,542.83 617.11,549.82 611.42,555.83
             605.39,562.20 597.04,568.40 589.00,571.96
             578.73,576.51 569.17,578.13 558.00,578.00
             532.81,577.70 507.51,561.58 496.37,539.00
             488.49,523.00 487.99,500.55 494.46,484.00
             504.10,459.34 526.50,444.18 552.00,440.29 Z
           M 552.00,790.29
           C 561.21,789.42 572.17,790.23 581.00,793.03
             620.63,805.57 639.43,846.56 625.30,885.00
             622.43,892.83 617.11,899.82 611.42,905.83
             605.39,912.20 597.04,918.40 589.00,921.96
             578.73,926.51 569.17,928.13 558.00,928.00
             532.81,927.70 507.51,911.58 496.37,889.00
             488.49,873.00 487.99,850.55 494.46,834.00
             504.10,809.34 526.50,794.18 552.00,790.29 Z" />
</svg>
