<?xml version="1.0" encoding="UTF-8" standalone="no"?>
<!DOCTYPE svg PUBLIC "-//W3C//DTD SVG 20010904//EN"
              "http://www.w3.org/TR/2001/REC-SVG-20010904/DTD/svg10.dtd">

<!-- Shapes icon (filled), by pixeldroid
     License - http://creativecommons.org/licenses/by/4.0/ (CC BY 4.0) -->
<svg xmlns="http://www.w3.org/2000/svg"
     viewBox="0 0 1020 1100">
  <path d="M 772.00,9.42
           C 772.00,9.42 755.00,11.28 755.00,11.28
             740.08,13.29 722.09,18.11 708.00,23.42
             649.62,45.46 602.59,92.14 579.45,150.00
             571.94,168.77 564.24,198.84 564.00,219.00
             563.80,236.20 563.58,252.97 566.43,270.00
             575.04,321.26 600.83,368.37 640.00,402.71
             662.32,422.29 688.85,437.28 717.00,446.67
             735.38,452.79 750.86,455.32 770.00,457.17
             770.00,457.17 779.00,458.00 779.00,458.00
             817.63,458.45 856.51,451.37 891.00,433.22
             950.68,401.81 993.77,347.21 1007.79,281.00
             1010.27,269.30 1011.28,257.87 1012.09,246.00
             1012.09,246.00 1012.09,221.00 1012.09,221.00
             1010.02,190.77 1004.42,165.72 991.69,138.00
             962.02,73.36 901.43,27.01 832.00,13.20
             815.65,9.95 788.38,7.43 772.00,9.42 Z
           M 47.00,125.11
           C 43.30,125.98 39.55,126.30 36.00,127.55
             19.06,133.52 9.21,148.26 9.00,166.00
             9.00,166.00 9.00,379.00 9.00,379.00
             9.00,379.00 9.00,732.00 9.00,732.00
             9.04,757.26 25.74,773.96 51.00,774.00
             51.00,774.00 344.00,774.00 344.00,774.00
             350.08,773.99 352.10,773.85 358.00,771.97
             373.83,766.94 384.92,752.70 385.00,736.00
             385.00,736.00 385.00,718.00 385.00,718.00
             385.00,718.00 385.00,165.00 385.00,165.00
             384.96,139.02 365.46,125.29 341.00,125.11
             341.00,125.11 47.00,125.11 47.00,125.11 Z
           M 576.00,561.44
           C 570.81,562.41 566.78,563.41 562.00,565.81
             544.42,574.62 537.59,592.31 538.01,611.00
             538.01,611.00 542.22,1019.00 542.22,1019.00
             544.82,1034.11 555.54,1047.18 570.00,1052.30
             574.48,1053.89 579.24,1054.88 584.00,1054.99
             600.08,1055.35 611.78,1046.93 625.00,1039.00
             625.00,1039.00 945.00,850.85 945.00,850.85
             962.31,840.92 976.53,832.93 979.29,811.00
             979.40,807.95 979.83,806.12 979.29,803.00
             979.15,798.80 978.34,793.97 976.91,790.00
             971.04,773.68 959.98,768.50 946.00,760.58
             946.00,760.58 615.00,572.85 615.00,572.85
             601.53,565.16 592.21,559.36 576.00,561.44 Z" />
</svg>
