<?xml version="1.0" encoding="UTF-8" standalone="no"?>
<!DOCTYPE svg PUBLIC "-//W3C//DTD SVG 20010904//EN"
              "http://www.w3.org/TR/2001/REC-SVG-20010904/DTD/svg10.dtd">

<!-- Shapes icon (outline), by pixeldroid
     License - http://creativecommons.org/licenses/by/4.0/ (CC BY 4.0) -->
<svg xmlns="http://www.w3.org/2000/svg"
     viewBox="0 0 1020 1100">
  <path d="M 772.00,9.42
           C 772.00,9.42 755.00,11.28 755.00,11.28
             740.08,13.29 722.09,18.11 708.00,23.42
             649.62,45.46 602.59,92.14 579.45,150.00
             571.94,168.77 564.24,198.84 564.00,219.00
             563.80,236.20 563.58,252.97 566.43,270.00
             575.04,321.26 600.83,368.37 640.00,402.71
             662.32,422.29 688.85,437.28 717.00,446.67
             735.38,452.79 750.86,455.32 770.00,457.17
             770.00,457.17 779.00,458.00 779.00,458.00
             817.63,458.45 856.51,451.37 891.00,433.22
             950.68,401.81 993.77,347.21 1007.79,281.00
             1010.27,269.30 1011.28,257.87 1012.09,246.00
             1012.09,246.00 1012.09,221.00 1012.09,221.00
             1010.02,190.77 1004.42,165.72 991.69,138.00
             962.02,73.36 901.43,27.01 832.00,13.20
             815.65,9.95 788.38,7.43 772.00,9.42 Z
           M 779.00,91.28
           C 795.07,89.79 816.68,92.94 832.00,98.00
             850.44,104.09 866.27,112.47 881.00,125.29
             907.70,148.51 929.57,186.87 930.00,223.00
             930.00,223.00 930.00,242.00 930.00,242.00
             929.95,275.20 912.11,310.89 889.00,334.00
             876.94,346.06 862.64,356.23 847.00,363.14
             827.75,371.65 806.04,376.24 785.00,376.00
             771.25,375.84 755.02,372.71 742.00,368.33
             659.88,340.72 622.43,245.75 660.81,169.00
             676.45,137.71 705.16,112.09 738.00,100.05
             754.32,94.07 762.48,93.66 779.00,91.28 Z
           M 47.00,125.11
           C 43.30,125.98 39.55,126.30 36.00,127.55
             19.06,133.52 9.21,148.26 9.00,166.00
             9.00,166.00 9.00,379.00 9.00,379.00
             9.00,379.00 9.00,732.00 9.00,732.00
             9.04,757.26 25.74,773.96 51.00,774.00
             51.00,774.00 344.00,774.00 344.00,774.00
             350.08,773.99 352.10,773.85 358.00,771.97
             373.83,766.94 384.92,752.70 385.00,736.00
             385.00,736.00 385.00,718.00 385.00,718.00
             385.00,718.00 385.00,165.00 385.00,165.00
             384.96,139.02 365.46,125.29 341.00,125.11
             341.00,125.11 47.00,125.11 47.00,125.11 Z
           M 93.06,205.14
           C 93.06,205.14 295.00,205.00 295.00,205.00
             297.26,205.00 301.62,204.75 303.43,206.17
             305.15,207.53 304.96,210.04 305.00,212.00
             305.00,212.00 305.00,685.00 305.00,685.00
             305.00,687.30 305.38,691.41 303.40,692.98
             301.51,694.48 293.66,694.00 291.00,694.00
             291.00,694.00 98.00,694.00 98.00,694.00
             91.26,693.99 89.14,694.49 89.05,687.00
             89.05,687.00 88.57,210.51 89.60,208.23
             90.50,206.22 91.31,206.24 93.06,205.14 Z
           M 576.00,561.44
           C 570.81,562.41 566.78,563.41 562.00,565.81
             544.42,574.62 537.59,592.31 538.01,611.00
             538.01,611.00 542.22,1019.00 542.22,1019.00
             544.82,1034.11 555.54,1047.18 570.00,1052.30
             574.48,1053.89 579.24,1054.88 584.00,1054.99
             600.08,1055.35 611.78,1046.93 625.00,1039.00
             625.00,1039.00 945.00,850.85 945.00,850.85
             962.31,840.92 976.53,832.93 979.29,811.00
             979.40,807.95 979.83,806.12 979.29,803.00
             979.15,798.80 978.34,793.97 976.91,790.00
             971.04,773.68 959.98,768.50 946.00,760.58
             946.00,760.58 615.00,572.85 615.00,572.85
             601.53,565.16 592.21,559.36 576.00,561.44 Z
           M 628.43,682.68
           C 633.21,682.46 833.00,796.77 833.00,796.77
             835.88,798.34 844.80,802.45 844.80,806.00
             844.80,809.65 636.33,931.59 633.04,932.31
             627.89,933.44 628.05,928.62 628.00,925.00
             628.00,925.00 626.04,692.00 626.04,692.00
             626.01,688.26 625.30,685.16 628.43,682.68 Z" />
</svg>
