<?xml version="1.0" encoding="UTF-8" standalone="no"?>
<!DOCTYPE svg PUBLIC "-//W3C//DTD SVG 20010904//EN"
              "http://www.w3.org/TR/2001/REC-SVG-20010904/DTD/svg10.dtd">

<!-- Usage icon (outline), by pixeldroid
     License - http://creativecommons.org/licenses/by/4.0/ (CC BY 4.0) -->
<svg xmlns="http://www.w3.org/2000/svg"
     viewBox="0 0 1200 1200">
  <path d="M 121.38,350.13
           C 121.38,350.13 121.38,514.28 121.38,514.28
             121.38,592.23 184.80,655.66 262.76,655.66
             262.76,655.66 551.02,655.66 551.02,655.66
             551.02,655.66 551.02,850.35 551.02,850.35
             489.72,870.81 445.39,928.70 445.39,996.78
             445.39,1081.89 514.63,1151.14 599.75,1151.14
             684.86,1151.14 754.10,1081.89 754.10,996.78
             754.10,925.15 705.05,864.77 638.77,847.43
             638.77,847.43 638.77,655.66 638.77,655.66
             638.77,655.66 927.03,655.66 927.03,655.66
             1004.99,655.66 1068.41,592.23 1068.41,514.28
             1068.41,514.28 1068.41,353.04 1068.41,353.04
             1134.69,335.71 1183.74,275.33 1183.74,203.69
             1183.74,118.58 1114.50,49.34 1029.38,49.34
             944.27,49.34 875.03,118.58 875.03,203.69
             875.03,271.78 919.36,329.67 980.66,350.12
             980.66,350.12 980.66,514.27 980.66,514.27
             980.66,543.84 956.60,567.90 927.03,567.90
             927.03,567.90 638.77,567.90 638.77,567.90
             638.77,567.90 638.77,353.04 638.77,353.04
             705.05,335.71 754.10,275.33 754.10,203.69
             754.10,118.58 684.86,49.34 599.75,49.34
             514.63,49.34 445.39,118.58 445.39,203.70
             445.39,271.78 489.72,329.67 551.02,350.12
             551.02,350.12 551.02,567.90 551.02,567.90
             551.02,567.90 262.76,567.90 262.76,567.90
             233.19,567.90 209.13,543.85 209.13,514.28
             209.13,514.28 209.13,353.04 209.13,353.04
             275.41,335.71 324.46,275.33 324.46,203.69
             324.46,118.58 255.22,49.34 170.11,49.34
             84.99,49.34 15.75,118.58 15.75,203.69
             15.75,271.78 60.08,329.67 121.38,350.13 Z
           M 1029.38,137.10
           C 1066.11,137.10 1095.99,166.97 1095.99,203.70
             1095.99,240.42 1066.11,270.30 1029.38,270.30
             992.66,270.30 962.78,240.42 962.78,203.70
             962.78,166.97 992.66,137.10 1029.38,137.10 Z
           M 599.75,137.10
           C 636.47,137.10 666.35,166.97 666.35,203.70
             666.35,240.42 636.47,270.30 599.75,270.30
             563.02,270.30 533.14,240.42 533.14,203.70
             533.14,166.97 563.02,137.10 599.75,137.10 Z
           M 170.11,137.10
           C 206.83,137.10 236.71,166.97 236.71,203.70
             236.71,240.42 206.83,270.30 170.11,270.30
             133.38,270.30 103.50,240.42 103.50,203.70
             103.50,166.97 133.38,137.10 170.11,137.10 Z
           M 742.19,1208.44" />
</svg>
